<svg xmlns="http://www.w3.org/2000/svg" aria-hidden="true" style="position:absolute;width:0;height:0;overflow:hidden">
  <defs>
    <symbol id="x-close" fill="currentColor" viewBox="0 0 32 32">
      <path d="M32 3.224 28.776 0 16 12.776 3.224 0 0 3.224 12.776 16 0 28.776 3.224 32 16 19.224 28.776 32 32 28.776 19.224 16 32 3.224z"/>
    </symbol>
    <symbol id="icon-bin" fill="currentColor" viewBox="0 0 32 32">
      <path d="M26.5 4H20V1.5c0-.825-.675-1.5-1.5-1.5h-7c-.825 0-1.5.675-1.5 1.5V4H3.5C2.675 4 2 4.675 2 5.5V8h26V5.5c0-.825-.675-1.5-1.5-1.5zM18 4h-6V2.025h6V4zM4 10v20c0 1.1.9 2 2 2h18c1.1 0 2-.9 2-2V10H4zm6 18H8V14h2v14zm4 0h-2V14h2v14zm4 0h-2V14h2v14zm4 0h-2V14h2v14z"/>
    </symbol>
    <symbol id="icon-pencil" fill="currentColor" viewBox="0 0 32 32">
      <path d="M27 0a5 5 0 0 1 4 8l-2 2-7-7 2-2c.836-.628 1.874-1 3-1zM2 23l-2 9 9-2 18.5-18.5-7-7L2 23zm20.362-11.638-14 14-1.724-1.724 14-14 1.724 1.724z"/>
    </symbol>
    <symbol id="icon-checkmark" fill="currentColor" viewBox="0 0 32 32">
      <path d="M27 4 12 19l-7-7-5 5 12 12L32 9z"/>
    </symbol>
    <symbol id="icon-search" fill="currentColor" viewBox="0 0 32 32">
      <path d="m31.008 27.231-7.58-6.447c-.784-.705-1.622-1.029-2.299-.998a11.954 11.954 0 0 0 2.87-7.787c0-6.627-5.373-12-12-12s-12 5.373-12 12 5.373 12 12 12c2.972 0 5.691-1.081 7.787-2.87-.031.677.293 1.515.998 2.299l6.447 7.58c1.104 1.226 2.907 1.33 4.007.23s.997-2.903-.23-4.007zM12 20a8 8 0 1 1 0-16 8 8 0 0 1 0 16z"/>
    </symbol>
    <symbol id="icon-checkbox-checked" stroke="currentColor" viewBox="0 0 32 32">
      <path d="M28 0H4C1.8 0 0 1.8 0 4v24c0 2.2 1.8 4 4 4h24c2.2 0 4-1.8 4-4V4c0-2.2-1.8-4-4-4zM14 24.828l-7.414-7.414 2.828-2.828L14 19.172l9.586-9.586 2.828 2.828L14 24.828z"/>
    </symbol>
  </defs>
</svg>
